PathFileType	4	(X/Y/Z)	c:/Users/goper/Files/vsCode/490R/osim_files/C10/C10_SSWS_06.trc
DataRate	CameraRate	NumFrames	NumMarkers	Units                	OrigDataRate	OrigDataStartFrame	OrigNumFrames
250.00	250.00	8	36	mm	250.0	2238	2557
                Frame#	Time	LPSIS			LASIS			LTH1			LTH2			LTH3			LTH4			LLFE			LMFE			LSH1			LSH2			LSH3			LSH4			LLMAL			LMMAL			LCAL			LMTP5			LTOE			LMTP1			RPSIS			RASIS			RTH1			RTH2			RTH3			RTH4			RLFE			RMFE			RSH1			RSH2			RSH3			RSH4			RLMAL			RMMAL			RCAL			RMTP1			RTOE			RMTP5		
		X1	Y1	Z1	X2	Y2	Z2	X3	Y3	Z3	X4	Y4	Z4	X5	Y5	Z5	X6	Y6	Z6	X7	Y7	Z7	X8	Y8	Z8	X9	Y9	Z9	X10	Y10	Z10	X11	Y11	Z11	X12	Y12	Z12	X13	Y13	Z13	X14	Y14	Z14	X15	Y15	Z15	X16	Y16	Z16	X17	Y17	Z17	X18	Y18	Z18	X19	Y19	Z19	X20	Y20	Z20	X21	Y21	Z21	X22	Y22	Z22	X23	Y23	Z23	X24	Y24	Z24	X25	Y25	Z25	X26	Y26	Z26	X27	Y27	Z27	X28	Y28	Z28	X29	Y29	Z29	X30	Y30	Z30	X31	Y31	Z31	X32	Y32	Z32	X33	Y33	Z33	X34	Y34	Z34	X35	Y35	Z35	X36	Y36	Z36

2238	8.94800	-3266.48267	1003.95178	426.15778	0.00000	0.00000	0.00000	-3183.87549	728.00641	470.92255	0.00000	0.00000	0.00000	-3170.73633	777.09540	444.77365	0.00000	0.00000	0.00000	-3184.62769	509.04800	398.16501	-3102.05664	429.77930	409.26373	0.00000	0.00000	0.00000	-3095.22241	381.21326	411.97464	0.00000	0.00000	0.00000	0.00000	0.00000	0.00000	-3026.37793	94.07378	356.92487	0.00000	0.00000	0.00000	-2951.73633	46.86305	319.78314	0.00000	0.00000	0.00000	-3282.63110	1010.48895	55.76947	0.00000	0.00000	0.00000	0.00000	0.00000	0.00000	-3195.71533	709.65179	453.21075	0.00000	0.00000	0.00000	-3249.77954	685.64935	54.88960	0.00000	0.00000	0.00000	0.00000	0.00000	0.00000	-3394.08789	497.25146	105.47665	-3365.36499	381.93954	97.51331	-3354.10474	392.15204	113.73279	0.00000	0.00000	0.00000	0.00000	0.00000	0.00000	0.00000	0.00000	0.00000	-3473.41284	105.11889	140.40643	-3508.27466	125.36646	213.94594	0.00000	0.00000	0.00000	0.00000	0.00000	0.00000	-3647.02075	122.42930	124.03956	-3589.93164	90.30360	77.13389
2239	8.95200	-3271.04346	1003.23157	425.78485	0.00000	0.00000	0.00000	-3186.46362	727.83875	470.62515	0.00000	0.00000	0.00000	-3173.51123	776.82568	444.17294	0.00000	0.00000	0.00000	-3186.19946	508.93726	397.99628	-3103.35620	430.12341	408.81458	0.00000	0.00000	0.00000	-3096.48926	381.70831	411.65115	0.00000	0.00000	0.00000	0.00000	0.00000	0.00000	-3026.46826	94.42036	356.70898	0.00000	0.00000	0.00000	-2951.86792	47.10461	319.60434	0.00000	0.00000	0.00000	-3287.90869	1009.38330	54.96401	0.00000	0.00000	0.00000	0.00000	0.00000	0.00000	0.00000	0.00000	0.00000	0.00000	0.00000	0.00000	-3252.93555	684.24988	55.11792	0.00000	0.00000	0.00000	0.00000	0.00000	0.00000	-3398.41187	495.74432	105.40351	-3382.86670	382.22165	104.51125	0.00000	0.00000	0.00000	0.00000	0.00000	0.00000	0.00000	0.00000	0.00000	-3279.19458	273.53992	84.65718	-3486.67920	105.79182	138.59625	-3520.16235	126.25725	212.82304	-3465.27661	41.81466	191.06726	0.00000	0.00000	0.00000	-3660.04199	127.17995	124.57601	-3603.92334	94.18001	76.91945
2240	8.95600	-3275.53735	1002.45007	425.50552	0.00000	0.00000	0.00000	-3188.95972	727.59149	470.38834	0.00000	0.00000	0.00000	-3176.38599	776.63879	443.51840	0.00000	0.00000	0.00000	-3187.99634	508.85428	397.85425	-3104.85425	430.57037	408.39133	0.00000	0.00000	0.00000	-3097.62866	382.12415	411.27771	0.00000	0.00000	0.00000	0.00000	0.00000	0.00000	-3026.61694	94.75784	356.47858	0.00000	0.00000	0.00000	-2952.08057	47.28325	319.42310	0.00000	0.00000	0.00000	0.00000	0.00000	0.00000	-3142.30396	16.02077	353.17450	0.00000	0.00000	0.00000	-3205.06763	748.79535	460.17212	0.00000	0.00000	0.00000	-3252.18726	681.34381	53.89361	0.00000	0.00000	0.00000	0.00000	0.00000	0.00000	-3402.79175	494.32086	105.28702	-3388.19482	381.38107	103.54003	0.00000	0.00000	0.00000	0.00000	0.00000	0.00000	-3468.17188	434.52966	104.65887	0.00000	0.00000	0.00000	-3499.53394	106.54349	136.84981	-3531.66602	127.22176	211.65669	-3478.51709	41.75988	188.57961	0.00000	0.00000	0.00000	-3672.65625	131.82866	125.30313	-3618.04492	98.12229	76.63567
2241	8.96000	-3280.07056	1001.64807	425.20941	0.00000	0.00000	0.00000	-3191.70093	727.40607	470.10333	0.00000	0.00000	0.00000	-3179.25879	776.39044	442.87573	0.00000	0.00000	0.00000	-3189.91650	508.84579	397.71521	-3106.31641	430.92139	407.93494	0.00000	0.00000	0.00000	-3098.90186	382.54791	410.82852	0.00000	0.00000	0.00000	0.00000	0.00000	0.00000	-3026.75146	95.10860	356.21082	0.00000	0.00000	0.00000	-2952.14697	47.58784	319.15472	0.00000	0.00000	0.00000	-3171.37598	50.14034	299.31653	-3142.32471	16.10843	353.03589	0.00000	0.00000	0.00000	-3193.61816	776.92554	475.58707	-3275.67041	381.62787	108.37928	0.00000	0.00000	0.00000	0.00000	0.00000	0.00000	-3275.90259	313.23599	86.17925	-3407.35400	493.02161	105.12086	0.00000	0.00000	0.00000	0.00000	0.00000	0.00000	0.00000	0.00000	0.00000	0.00000	0.00000	0.00000	-3435.38574	366.64096	92.03844	-3512.11450	107.50850	135.18039	-3542.71460	128.21727	210.63806	-3491.61157	41.85536	186.09395	0.00000	0.00000	0.00000	-3684.77295	136.29713	126.25512	-3631.28101	101.93800	76.38945
2242	8.96400	-3284.61621	1000.84265	424.84402	0.00000	0.00000	0.00000	-3194.44067	727.18512	469.77698	-3196.55737	776.70422	475.21368	0.00000	0.00000	0.00000	0.00000	0.00000	0.00000	-3191.90405	508.80109	397.58493	-3108.00757	431.36569	407.50229	0.00000	0.00000	0.00000	-3100.36621	383.05280	410.48132	0.00000	0.00000	0.00000	0.00000	0.00000	0.00000	-3026.91333	95.45947	355.91382	0.00000	0.00000	0.00000	-2952.13159	47.88328	318.77646	0.00000	0.00000	0.00000	0.00000	0.00000	0.00000	-3142.31787	16.17767	352.95273	0.00000	0.00000	0.00000	0.00000	0.00000	0.00000	0.00000	0.00000	0.00000	0.00000	0.00000	0.00000	-3109.13330	1000.62939	210.75009	0.00000	0.00000	0.00000	-3412.05908	491.82675	104.93240	0.00000	0.00000	0.00000	0.00000	0.00000	0.00000	-3442.03369	366.23148	91.14665	0.00000	0.00000	0.00000	0.00000	0.00000	0.00000	-3524.34229	108.49744	133.55544	-3553.28467	129.16029	209.60463	0.00000	0.00000	0.00000	0.00000	0.00000	0.00000	-3696.50049	140.64494	127.51579	-3643.06519	105.01691	76.24361
2243	8.96800	-3289.14819	999.99219	424.54880	0.00000	0.00000	0.00000	-3197.31958	726.98993	469.45950	-3199.50488	776.48175	474.75174	0.00000	0.00000	0.00000	0.00000	0.00000	0.00000	-3194.07959	508.73981	397.41180	-3109.83496	431.83041	407.07663	0.00000	0.00000	0.00000	-3101.78979	383.49469	410.09125	0.00000	0.00000	0.00000	0.00000	0.00000	0.00000	-3027.15552	95.82722	355.65948	0.00000	0.00000	0.00000	-2952.36304	48.13690	318.41376	0.00000	0.00000	0.00000	-3171.62256	50.15386	299.26157	-3142.30957	16.28332	352.80359	0.00000	0.00000	0.00000	0.00000	0.00000	0.00000	0.00000	0.00000	0.00000	0.00000	0.00000	0.00000	-3114.17139	1000.06531	209.86505	0.00000	0.00000	0.00000	-3416.93433	490.76239	104.66222	0.00000	0.00000	0.00000	0.00000	0.00000	0.00000	0.00000	0.00000	0.00000	0.00000	0.00000	0.00000	-3251.09131	231.68475	76.78445	-3536.21362	109.58527	132.07042	-3563.41162	130.07076	208.68486	-3516.59497	42.23358	181.33614	0.00000	0.00000	0.00000	-3707.78857	144.78143	128.88200	-3655.73145	108.62337	76.59440
2244	8.97200	-3293.90015	999.21729	424.21121	0.00000	0.00000	0.00000	-3200.29126	726.76398	469.12308	-3202.73096	776.28436	474.26486	0.00000	0.00000	0.00000	0.00000	0.00000	0.00000	-3196.44043	508.67953	397.26215	-3111.63062	432.15341	406.59933	0.00000	0.00000	0.00000	-3103.42798	383.97220	409.67538	0.00000	0.00000	0.00000	0.00000	0.00000	0.00000	-3027.29419	96.27885	355.36261	0.00000	0.00000	0.00000	-2952.41724	48.63619	318.22659	0.00000	0.00000	0.00000	0.00000	0.00000	0.00000	-3142.31445	16.39855	352.65277	0.00000	0.00000	0.00000	0.00000	0.00000	0.00000	0.00000	0.00000	0.00000	0.00000	0.00000	0.00000	-3119.33301	999.47870	209.07596	0.00000	0.00000	0.00000	-3421.88403	489.75009	104.39335	0.00000	0.00000	0.00000	0.00000	0.00000	0.00000	-3463.53345	364.69888	95.32526	0.00000	0.00000	0.00000	0.00000	0.00000	0.00000	-3547.53857	110.59867	130.66904	-3573.29297	131.03523	207.82689	-3528.21338	42.55207	179.08604	0.00000	0.00000	0.00000	-3718.54346	148.64252	130.40450	-3668.02734	111.98167	76.99019
2245	8.97600	-3298.52881	998.40149	423.85950	0.00000	0.00000	0.00000	-3203.43237	726.54932	468.79016	-3206.07324	776.10364	473.86194	0.00000	0.00000	0.00000	0.00000	0.00000	0.00000	-3198.85840	508.59558	397.09543	-3113.78979	432.59265	406.21414	0.00000	0.00000	0.00000	-3105.17480	384.41165	409.30917	0.00000	0.00000	0.00000	0.00000	0.00000	0.00000	-3027.52319	96.81042	355.07748	0.00000	0.00000	0.00000	-2952.50513	49.42102	317.95697	0.00000	0.00000	0.00000	-3171.70728	50.02377	299.24857	-3142.31372	16.43294	352.58728	0.00000	0.00000	0.00000	-3136.01929	996.61810	210.40364	-3272.87231	977.22723	91.71027	0.00000	0.00000	0.00000	0.00000	0.00000	0.00000	0.00000	0.00000	0.00000	-3427.20679	489.00134	104.02959	0.00000	0.00000	0.00000	0.00000	0.00000	0.00000	-3470.62598	364.66592	94.66475	0.00000	0.00000	0.00000	0.00000	0.00000	0.00000	-3558.55591	111.68218	129.43057	-3582.45923	131.75917	206.99698	-3530.84106	45.62558	174.95735	0.00000	0.00000	0.00000	-3728.88330	152.20930	132.12614	-3680.20874	115.04205	77.60864
